<?xml version="1.0" encoding="UTF-8" standalone="no"?>
<!DOCTYPE svg PUBLIC "-//W3C//DTD SVG 1.1//EN" "http://www.w3.org/Graphics/SVG/1.1/DTD/svg11.dtd">
<svg width="2560.00" height="2560.00" viewBox="0.00 0.00 2560.00 2560.00" xmlns="http://www.w3.org/2000/svg" xmlns:xlink="http://www.w3.org/1999/xlink">
<g stroke-linecap="round" id="Folder_3_Copy_2">
<path d="M1260.50,551.50 C1260.84,551.40 1281.24,551.47 1288.50,551.50 C1296.39,551.48 1303.72,552.81 1310.50,552.50 C1313.66,552.37 1319.02,553.37 1320.50,553.50 C1321.70,553.61 1328.69,553.37 1330.81,553.99 C1333.01,554.62 1336.47,554.50 1338.50,554.40 C1340.29,554.37 1344.51,555.59 1346.33,555.50 C1348.34,555.41 1378.33,559.50 1380.50,559.50 C1380.76,559.53 1383.69,560.40 1384.50,560.50 C1385.19,560.59 1388.15,560.47 1388.50,560.50 C1388.96,560.55 1422.77,566.55 1438.50,570.50 C1453.46,574.61 1496.23,586.38 1496.50,586.50 C1496.68,586.58 1501.34,588.81 1506.03,589.83 C1508.43,590.37 1512.57,592.64 1514.91,593.16 C1519.58,594.16 1523.91,596.27 1524.50,596.50 C1524.95,596.68 1536.13,600.37 1536.50,600.50 C1541.40,602.59 1571.64,615.07 1580.52,619.41 C1596.01,627.17 1630.81,644.79 1637.17,648.52 C1650.12,656.38 1680.72,674.88 1686.63,678.97 C1700.28,688.67 1723.54,706.76 1736.41,716.99 C1748.53,727.00 1771.85,746.62 1780.00,755.07 C1781.50,756.59 1793.30,766.97 1798.54,772.74 C1808.74,784.06 1822.01,798.71 1837.47,816.79 C1847.88,829.47 1866.01,853.29 1874.71,864.96 C1883.15,876.61 1900.17,903.80 1908.83,918.40 C1914.07,927.44 1920.71,940.57 1920.96,940.96 C1924.02,945.40 1940.97,980.33 1947.50,994.50 C1953.63,1008.48 1964.36,1038.24 1965.42,1040.16 C1966.58,1042.28 1968.19,1049.69 1968.50,1050.50 C1969.50,1052.50 1970.82,1055.32 1971.84,1060.06 C1972.40,1062.60 1974.69,1066.83 1975.04,1068.46 C1976.01,1073.02 1980.15,1086.08 1982.50,1094.50 C1986.27,1109.27 1994.51,1143.42 1996.50,1154.53 C1997.86,1162.68 2000.46,1178.08 2000.50,1178.50 C2000.50,1180.50 2001.06,1187.20 2002.00,1190.33 C2002.60,1192.36 2004.50,1212.42 2005.00,1217.30 C2005.60,1220.41 2005.42,1226.44 2006.00,1228.33 C2006.63,1230.36 2006.39,1237.55 2006.50,1238.50 C2006.60,1239.40 2007.59,1245.48 2007.50,1250.71 C2007.46,1253.20 2008.58,1261.10 2008.58,1273.90 C2008.54,1281.86 2008.46,1298.60 2008.00,1300.16 C2007.39,1302.23 2007.40,1308.12 2007.50,1310.50 C2007.63,1313.68 2006.63,1319.03 2006.50,1320.50 C2006.39,1321.70 2006.63,1328.69 2006.02,1330.81 C2005.38,1333.01 2005.50,1336.47 2005.60,1338.50 C2005.63,1340.29 2004.42,1344.51 2004.50,1346.33 C2004.60,1348.34 2000.50,1378.33 2000.50,1380.50 C2000.47,1380.76 1999.60,1383.69 1999.50,1384.50 C1999.42,1385.19 1999.54,1388.15 1999.50,1388.50 C1999.46,1388.96 1996.25,1406.01 1994.99,1413.77 C1994.90,1414.25 1991.00,1431.50 1989.50,1438.50 C1987.63,1445.79 1983.58,1461.19 1981.40,1469.30 C1978.50,1479.39 1975.29,1488.80 1974.08,1494.42 C1973.68,1496.24 1971.39,1500.44 1970.84,1502.94 C1969.82,1507.68 1968.50,1510.50 1967.50,1512.50 C1967.19,1513.31 1965.58,1520.72 1964.42,1522.84 C1963.36,1524.76 1956.62,1544.34 1955.48,1546.96 C1950.10,1559.35 1937.97,1585.61 1931.23,1599.47 C1923.52,1614.81 1910.70,1638.85 1902.50,1652.50 C1898.44,1658.99 1890.57,1671.71 1886.76,1677.94 C1882.86,1684.30 1863.21,1710.82 1854.61,1722.26 C1827.90,1756.33 1798.88,1786.87 1793.50,1792.50 C1788.71,1797.37 1760.40,1822.61 1748.42,1833.16 C1734.43,1845.00 1713.48,1861.27 1701.28,1870.33 C1689.42,1878.77 1665.50,1894.50 1651.94,1902.76 C1645.26,1906.69 1630.28,1915.36 1625.89,1917.36 C1621.07,1919.56 1614.40,1924.07 1606.01,1928.25 C1590.97,1935.49 1555.98,1951.77 1544.00,1956.54 C1534.08,1960.33 1530.00,1961.30 1529.50,1961.50 C1529.05,1961.68 1516.58,1966.84 1511.91,1967.85 C1509.57,1968.37 1505.43,1970.64 1503.06,1971.17 C1499.74,1971.88 1488.03,1976.78 1441.16,1988.83 C1433.52,1990.61 1417.76,1993.91 1409.74,1995.51 C1402.85,1996.79 1386.33,1999.33 1385.50,1999.50 C1380.64,2000.50 1368.44,2002.37 1342.70,2005.00 C1339.59,2005.60 1333.56,2005.42 1331.67,2006.00 C1329.64,2006.63 1322.46,2006.39 1321.50,2006.50 C1320.61,2006.60 1314.52,2007.59 1309.29,2007.50 C1306.80,2007.46 1298.91,2008.58 1286.11,2008.58 C1278.14,2008.54 1261.40,2008.46 1259.84,2008.00 C1257.77,2007.39 1251.88,2007.40 1249.50,2007.50 C1246.32,2007.63 1240.97,2006.63 1239.50,2006.50 C1238.30,2006.39 1231.31,2006.63 1229.19,2006.02 C1227.00,2005.38 1223.53,2005.50 1221.50,2005.60 C1219.72,2005.63 1215.49,2004.42 1213.67,2004.50 C1211.66,2004.60 1181.67,2000.50 1179.50,2000.50 C1179.24,2000.47 1176.31,1999.60 1175.50,1999.50 C1174.81,1999.42 1171.86,1999.54 1171.50,1999.50 C1171.04,1999.46 1137.24,1993.45 1121.50,1989.50 C1106.54,1985.40 1063.77,1973.62 1063.50,1973.50 C1063.32,1973.42 1058.66,1971.19 1053.97,1970.17 C1051.57,1969.64 1047.43,1967.37 1045.09,1966.85 C1040.43,1965.84 1036.09,1963.73 1035.50,1963.50 C1035.05,1963.32 1023.87,1959.63 1023.50,1959.50 C1018.60,1957.42 988.36,1944.94 979.49,1940.59 C963.99,1932.83 929.19,1915.22 922.83,1911.48 C909.88,1903.63 879.28,1885.12 873.38,1881.03 C859.73,1871.33 836.47,1853.24 823.59,1843.02 C811.47,1833.00 788.15,1813.38 780.01,1804.93 C778.50,1803.41 766.70,1793.03 761.47,1787.26 C751.26,1775.94 737.99,1761.29 722.54,1743.22 C712.12,1730.53 693.99,1706.71 685.29,1695.04 C676.85,1683.39 659.83,1656.21 651.17,1641.60 C645.93,1632.56 639.29,1619.43 639.05,1619.05 C635.98,1614.60 619.03,1579.67 612.50,1565.50 C606.37,1551.52 595.64,1521.77 594.59,1519.84 C593.43,1517.72 591.81,1510.31 591.50,1509.50 C590.50,1507.50 589.19,1504.68 588.17,1499.94 C587.60,1497.40 585.31,1493.18 584.96,1491.55 C583.99,1486.98 579.85,1473.93 577.50,1465.50 C573.73,1450.73 565.49,1416.58 563.50,1405.47 C562.14,1397.32 559.55,1381.92 559.50,1381.50 C559.50,1379.50 558.95,1372.80 558.00,1369.67 C557.40,1367.65 555.50,1347.59 555.00,1342.70 C554.40,1339.59 554.58,1333.56 554.00,1331.67 C553.38,1329.64 553.61,1322.46 553.50,1321.50 C553.49,1321.43 552.41,1314.54 552.50,1309.39 C552.55,1306.66 551.41,1296.73 551.33,1284.33 C551.38,1276.39 551.56,1260.92 552.33,1255.56 C552.60,1253.36 552.48,1245.72 552.50,1245.50 C553.00,1242.50 553.61,1238.42 553.45,1233.92 C553.37,1231.30 554.62,1227.00 554.60,1225.56 C554.50,1223.53 554.37,1219.72 555.02,1217.47 C555.59,1215.49 558.40,1185.36 559.00,1183.33 C559.50,1181.68 562.12,1154.85 570.50,1121.50 C574.61,1106.54 586.38,1063.77 586.50,1063.50 C586.58,1063.32 588.81,1058.66 589.83,1053.97 C590.37,1051.57 592.64,1047.43 593.16,1045.09 C594.16,1040.43 596.27,1036.09 596.50,1035.50 C596.68,1035.05 600.37,1023.87 600.50,1023.50 C602.59,1018.60 615.07,988.35 619.43,979.44 C627.22,963.91 644.54,929.65 648.29,923.25 C656.14,910.17 674.15,880.87 681.25,870.50 C689.51,858.95 706.65,836.37 717.71,822.85 C728.39,810.20 760.71,772.47 766.65,767.52 C771.81,763.26 799.62,736.69 810.68,727.32 C822.19,717.91 847.14,698.63 859.53,689.23 C874.20,678.65 896.48,664.21 909.99,656.00 C916.88,652.01 928.44,645.39 936.35,641.63 C938.93,640.37 948.35,634.44 957.34,629.83 C973.92,621.91 997.65,611.16 1005.40,607.71 C1010.34,605.56 1018.50,602.50 1022.50,601.50 C1026.50,599.50 1038.05,595.68 1038.50,595.50 C1039.09,595.27 1043.43,593.16 1048.09,592.16 C1050.43,591.64 1054.57,589.37 1056.94,588.84 C1060.09,588.16 1066.84,585.36 1089.59,578.87 C1104.29,574.91 1141.33,565.88 1151.22,564.08 C1157.62,562.97 1174.50,560.56 1176.71,559.93 C1178.44,559.44 1182.60,559.62 1184.67,559.00 C1186.33,558.50 1207.50,556.00 1210.50,555.50 C1212.50,555.50 1233.67,553.48 1235.87,553.55 C1238.28,553.62 1244.89,552.39 1247.00,552.39 C1248.21,552.39 1258.01,552.66 1258.50,552.50 C1259.21,552.28 1259.79,551.71 1260.50,551.50 Z" fill="none" stroke="rgb(255, 255, 255)" stroke-width="24.80" stroke-opacity="1.00" stroke-linejoin="round"/>
<path d="M1251.50,601.50 C1251.93,601.38 1306.96,601.38 1307.50,601.50 C1307.98,601.61 1312.38,602.60 1317.50,602.60 C1322.93,602.52 1326.94,602.36 1327.50,602.50 C1328.03,602.63 1332.46,603.61 1337.02,603.45 C1339.73,603.37 1344.02,604.62 1345.44,604.60 C1347.47,604.50 1351.29,604.37 1353.53,605.02 C1355.51,605.59 1385.53,608.43 1387.40,608.96 C1387.97,609.12 1425.75,615.55 1441.30,619.27 C1448.61,621.17 1464.63,625.31 1469.25,626.37 C1472.80,627.22 1477.39,629.48 1477.50,629.50 C1478.16,629.63 1479.84,629.55 1481.99,630.33 C1485.44,631.57 1492.70,633.18 1493.50,633.50 C1495.50,634.50 1498.33,635.82 1502.99,636.82 C1505.75,637.43 1509.91,639.69 1511.26,639.98 C1513.95,640.56 1547.91,653.41 1551.62,655.55 C1553.39,656.58 1562.27,659.84 1573.18,665.22 C1588.75,673.04 1610.71,684.12 1626.29,693.33 C1633.05,697.28 1646.66,705.36 1653.50,709.50 C1665.32,717.12 1689.08,734.78 1701.47,744.48 C1726.22,764.43 1755.54,791.35 1759.35,794.52 C1761.28,796.14 1766.86,803.00 1768.36,804.41 C1773.30,809.06 1797.42,835.80 1807.50,848.50 C1817.24,860.83 1834.24,882.84 1844.60,897.66 C1852.77,909.82 1867.50,934.50 1874.25,946.57 C1899.94,996.56 1907.01,1013.13 1911.28,1024.22 C1914.38,1032.57 1923.09,1056.58 1923.83,1060.02 C1924.44,1062.75 1926.77,1067.11 1927.00,1068.10 C1927.52,1070.53 1929.02,1077.25 1929.50,1078.50 C1930.08,1080.01 1931.50,1082.50 1931.50,1082.50 C1931.63,1083.16 1931.54,1084.93 1932.02,1086.47 C1934.81,1095.74 1944.50,1134.68 1946.81,1146.74 C1948.59,1156.86 1950.45,1170.53 1951.07,1172.71 C1951.56,1174.44 1954.41,1202.29 1955.00,1205.33 C1955.60,1208.42 1955.42,1214.48 1956.00,1216.39 C1956.63,1218.44 1956.40,1224.69 1956.50,1226.50 C1956.59,1228.03 1957.58,1236.02 1957.56,1239.62 C1957.39,1248.73 1958.52,1252.49 1958.58,1261.11 C1958.55,1278.44 1958.50,1304.41 1958.58,1306.79 C1958.60,1307.86 1957.41,1311.90 1957.44,1315.50 C1957.50,1319.55 1957.59,1326.71 1957.00,1328.67 C1956.39,1330.69 1956.61,1337.30 1956.50,1338.50 C1956.37,1339.91 1955.32,1345.81 1955.50,1348.50 C1955.69,1351.31 1954.50,1360.50 1953.50,1364.50 C1953.00,1371.50 1951.91,1383.31 1951.00,1386.33 C1950.38,1388.41 1950.56,1392.59 1950.08,1394.29 C1949.49,1396.39 1947.30,1410.76 1945.50,1420.50 C1943.07,1432.04 1934.90,1463.11 1931.19,1478.03 C1930.45,1480.96 1928.23,1485.11 1928.01,1486.05 C1926.05,1495.14 1922.76,1503.29 1922.18,1505.99 C1921.58,1508.72 1916.38,1520.60 1916.02,1522.32 C1915.58,1524.37 1908.75,1541.89 1905.61,1549.82 C1903.91,1554.03 1892.88,1577.97 1882.27,1598.47 C1874.47,1612.95 1858.22,1640.94 1850.37,1653.58 C1843.76,1663.80 1825.16,1689.60 1815.42,1702.21 C1796.80,1725.29 1759.89,1765.32 1755.56,1768.80 C1753.11,1770.86 1741.30,1782.16 1734.03,1788.68 C1722.66,1798.40 1695.09,1820.98 1685.92,1827.96 C1679.32,1832.76 1665.98,1842.24 1659.25,1846.92 C1652.44,1851.56 1630.56,1864.79 1626.26,1866.62 C1624.90,1867.20 1620.79,1870.45 1618.01,1871.80 C1608.02,1876.63 1601.77,1880.88 1594.86,1884.46 C1574.13,1894.75 1553.88,1903.98 1543.10,1908.26 C1534.37,1911.65 1516.30,1918.59 1514.26,1919.03 C1512.88,1919.33 1508.75,1921.57 1505.99,1922.18 C1503.28,1922.76 1492.73,1927.02 1462.51,1935.10 C1442.08,1940.65 1422.32,1945.27 1401.77,1948.61 C1396.85,1949.42 1392.97,1950.45 1392.50,1950.50 C1392.14,1950.54 1383.77,1951.06 1380.67,1952.00 C1378.65,1952.60 1356.51,1954.42 1354.53,1954.99 C1352.29,1955.63 1348.47,1955.50 1346.44,1955.40 C1345.00,1955.38 1340.70,1956.63 1338.09,1956.55 C1335.17,1956.45 1325.04,1957.68 1315.09,1957.40 C1312.69,1957.37 1308.81,1958.54 1306.02,1958.54 C1299.01,1958.57 1282.53,1958.57 1273.06,1958.54 C1266.03,1958.52 1252.74,1958.47 1251.11,1958.00 C1248.69,1957.31 1232.89,1957.55 1230.91,1956.99 C1228.73,1956.37 1221.61,1956.61 1220.50,1956.50 C1219.31,1956.38 1211.50,1955.50 1208.50,1955.50 C1207.73,1955.43 1204.86,1954.55 1204.50,1954.50 C1204.05,1954.44 1197.50,1954.00 1194.50,1953.50 C1187.93,1952.86 1182.50,1952.50 1178.50,1951.50 C1177.86,1951.42 1174.87,1951.54 1174.50,1951.50 C1174.07,1951.46 1157.07,1948.56 1148.63,1947.24 C1138.56,1945.44 1102.13,1936.28 1085.30,1931.94 C1082.12,1931.07 1075.94,1929.40 1074.06,1928.33 C1073.94,1928.26 1060.97,1924.70 1060.50,1924.50 C1059.93,1924.26 1055.57,1922.16 1050.98,1921.17 C1048.29,1920.58 1028.47,1912.41 1026.68,1912.03 C1024.71,1911.61 1008.40,1904.62 1000.43,1901.14 C970.67,1887.25 927.96,1863.77 921.74,1859.96 C903.64,1848.62 884.79,1835.65 869.49,1824.22 C857.25,1814.75 832.56,1794.51 821.04,1784.57 C813.46,1777.83 797.72,1762.87 780.12,1743.76 C769.22,1731.47 749.98,1708.23 740.37,1696.38 C730.50,1683.50 709.00,1653.01 704.49,1645.48 C701.00,1639.49 685.32,1613.21 679.77,1602.30 C675.55,1593.91 667.44,1577.66 663.54,1569.81 C658.98,1560.47 652.45,1545.79 642.51,1519.08 C640.57,1513.72 636.91,1503.43 636.17,1499.98 C635.57,1497.25 633.23,1492.89 633.00,1491.91 C632.48,1489.47 630.98,1482.75 630.50,1481.50 C629.93,1479.99 628.50,1477.51 628.50,1477.50 C628.37,1476.85 628.47,1475.07 627.98,1473.53 C625.19,1464.26 615.50,1425.32 613.19,1413.26 C611.41,1403.14 609.55,1389.48 608.93,1387.29 C608.44,1385.56 606.59,1365.56 606.00,1363.67 C605.41,1361.75 605.59,1355.24 605.02,1353.33 C604.37,1351.22 604.50,1347.49 604.60,1345.44 C604.62,1344.02 603.37,1339.74 603.45,1336.97 C603.61,1332.27 602.60,1328.26 602.50,1327.50 C602.43,1326.93 602.51,1317.76 602.56,1314.03 C602.57,1311.11 601.45,1307.38 601.45,1305.24 C601.47,1290.37 601.45,1267.00 601.41,1258.51 C601.45,1253.86 602.39,1250.49 602.50,1249.50 C602.57,1248.89 602.49,1239.82 602.44,1236.07 C602.43,1233.26 603.62,1229.31 603.55,1227.22 C603.32,1220.58 605.50,1205.50 605.50,1199.50 C605.58,1198.69 606.46,1195.83 606.50,1195.50 C606.57,1195.06 608.09,1176.69 609.00,1173.67 C609.62,1171.59 609.45,1167.39 609.91,1165.76 C610.50,1163.65 614.10,1141.59 614.50,1139.50 C617.39,1126.94 625.59,1094.16 628.84,1082.97 C629.60,1080.46 635.07,1062.40 635.46,1061.68 C636.61,1059.56 638.16,1052.43 638.50,1051.50 C638.90,1050.41 640.27,1048.09 640.50,1047.50 C640.68,1047.05 641.29,1044.06 641.50,1043.50 C641.72,1042.89 643.34,1039.92 643.50,1039.50 C643.68,1039.05 649.19,1022.97 651.86,1016.03 C654.58,1009.22 661.78,995.17 662.51,992.97 C663.91,988.65 671.37,973.50 675.42,965.42 C679.27,957.96 683.40,951.94 688.06,942.30 C689.89,938.58 714.86,897.72 716.50,895.50 C718.04,893.42 720.89,890.26 721.50,889.50 C722.03,888.85 733.12,873.34 737.59,867.41 C743.22,860.07 754.17,846.12 759.50,839.50 C769.28,827.93 788.87,807.10 791.02,805.03 C793.97,802.19 796.67,798.38 797.50,797.50 C801.08,793.71 830.86,767.00 842.70,756.80 C849.09,751.58 879.75,727.93 888.50,721.61 C917.14,701.79 947.50,685.50 953.50,682.50 C955.05,681.63 960.48,677.98 964.13,676.11 C970.82,672.80 987.99,664.15 989.50,663.50 C991.49,662.66 997.35,660.70 999.45,659.50 C1004.76,656.34 1020.06,650.41 1027.76,647.47 C1035.94,644.45 1059.54,635.93 1062.99,635.19 C1064.62,634.83 1066.91,633.98 1068.05,633.33 C1068.83,632.88 1075.97,630.96 1077.50,630.50 C1078.59,630.17 1085.57,628.61 1087.67,627.42 C1089.49,626.39 1095.69,625.53 1098.22,624.63 C1121.75,616.24 1176.08,608.98 1179.33,608.00 C1181.36,607.40 1201.42,605.50 1206.30,605.00 C1209.41,604.40 1215.44,604.58 1217.33,604.00 C1219.37,603.38 1226.40,603.61 1227.50,603.50 C1228.45,603.41 1234.72,602.35 1238.64,602.43 C1241.57,602.50 1249.11,602.64 1249.50,602.50 C1250.20,602.25 1250.78,601.70 1251.50,601.50 Z" fill="none" stroke="rgb(255, 255, 255)" stroke-width="24.80" stroke-opacity="1.00" stroke-linejoin="round"/>
<path d="M1375.50,1746.50 C1373.64,1747.55 1366.69,1748.77 1362.61,1749.50 C1358.49,1750.23 1351.29,1751.51 1349.12,1752.13 C1347.62,1752.55 1335.50,1753.41 1333.50,1754.00 C1331.50,1754.59 1317.54,1755.42 1315.67,1756.00 C1313.66,1756.63 1306.27,1756.39 1305.50,1756.50 C1305.08,1756.56 1300.70,1757.59 1294.47,1757.49 C1288.29,1757.40 1284.08,1758.45 1283.50,1758.50 C1282.79,1758.56 1272.48,1757.62 1269.50,1757.50 C1266.44,1757.38 1258.16,1757.59 1257.50,1757.50 C1255.50,1757.00 1252.71,1756.39 1248.00,1756.55 C1245.34,1756.63 1231.45,1754.41 1229.53,1754.50 C1227.50,1754.59 1205.23,1751.35 1182.18,1746.49 C1178.96,1745.76 1172.21,1743.74 1171.50,1743.50 C1171.20,1743.40 1149.29,1739.95 1149.21,1739.93 C1144.68,1738.63 1139.79,1738.55 1139.50,1738.50 C1139.20,1738.45 1132.20,1736.14 1126.28,1735.10 C1124.04,1734.73 1122.25,1733.47 1121.50,1733.50 C1120.76,1733.53 1119.12,1734.62 1117.81,1734.16 C1116.02,1733.54 1109.32,1732.62 1107.25,1731.45 C1105.38,1730.39 1101.59,1729.59 1099.46,1728.67 C1059.67,1711.43 1027.11,1692.48 1009.50,1680.50 C1003.15,1676.16 971.66,1651.51 958.46,1640.46 C951.64,1634.64 929.50,1612.65 927.50,1610.50 C924.13,1606.85 921.46,1602.68 920.24,1599.15 C919.68,1597.45 919.27,1595.24 919.50,1594.50 C919.73,1593.76 920.82,1590.89 920.50,1589.50 C920.25,1588.51 906.21,1572.14 901.92,1566.78 C896.74,1560.11 885.52,1544.73 882.66,1540.32 C880.50,1536.98 870.99,1520.98 868.87,1517.80 C867.54,1515.73 864.34,1508.97 863.50,1507.50 C862.81,1506.30 859.28,1501.06 857.04,1496.76 C842.14,1467.17 831.44,1439.64 830.87,1437.10 C829.83,1432.35 828.50,1429.50 827.50,1427.50 C827.19,1426.68 825.61,1419.44 824.47,1417.35 C823.86,1416.23 819.50,1400.50 817.50,1393.50 C811.22,1367.25 808.57,1354.14 808.50,1353.50 C808.50,1351.50 807.55,1345.72 807.50,1345.50 C806.67,1342.07 805.50,1328.22 805.50,1327.50 C805.10,1325.90 803.33,1312.10 803.50,1309.50 C803.70,1306.51 802.63,1302.79 802.50,1301.50 C802.41,1300.58 802.59,1288.40 802.50,1287.50 C802.38,1286.31 801.01,1280.54 801.50,1277.50 C801.50,1277.50 802.59,1272.73 802.50,1268.22 C802.16,1254.27 804.43,1242.09 804.50,1241.50 C804.57,1241.01 806.00,1225.50 806.50,1219.50 C808.38,1208.56 812.73,1186.24 815.19,1174.85 C817.34,1167.18 821.62,1151.75 823.73,1143.99 C824.41,1141.59 826.59,1137.60 827.15,1135.11 C828.18,1130.33 829.50,1127.50 830.50,1125.50 C830.83,1124.65 832.45,1117.29 833.47,1115.38 C834.71,1113.08 840.10,1098.53 844.03,1090.22 C848.70,1080.58 864.19,1050.69 873.05,1035.52 C877.37,1028.37 886.65,1013.19 889.09,1010.32 C892.06,1006.82 898.88,996.87 905.13,988.83 C916.54,974.64 932.79,956.39 946.55,942.41 C951.50,937.50 962.28,927.26 967.49,922.61 C975.93,915.44 1009.03,889.76 1015.50,885.50 C1021.61,881.67 1033.61,874.17 1039.50,870.50 C1047.18,865.69 1079.14,849.62 1093.79,842.57 C1105.56,837.31 1125.08,830.70 1127.07,829.61 C1129.25,828.43 1136.66,826.82 1137.50,826.50 C1138.14,826.26 1142.52,824.09 1146.99,823.06 C1149.43,822.54 1153.08,821.74 1155.30,820.50 C1157.27,819.41 1165.90,817.66 1191.50,811.50 C1194.40,810.87 1226.73,805.69 1227.50,805.50 C1228.04,805.43 1231.01,805.57 1231.50,805.50 C1231.89,805.45 1234.71,804.57 1235.50,804.50 C1236.21,804.43 1240.89,804.57 1241.50,804.50 C1241.85,804.46 1246.38,803.39 1251.12,803.55 C1253.37,803.62 1257.45,802.41 1259.76,802.45 C1268.67,802.65 1281.85,801.48 1284.21,801.93 C1287.71,802.61 1294.58,802.51 1298.61,802.45 C1301.66,802.41 1305.63,803.62 1307.88,803.55 C1312.62,803.39 1317.16,804.46 1317.50,804.50 C1318.11,804.57 1322.80,804.43 1323.50,804.50 C1324.30,804.57 1327.10,805.45 1327.50,805.50 C1328.05,805.58 1331.11,805.46 1331.50,805.50 C1331.63,805.51 1349.39,808.49 1351.13,808.42 C1353.33,808.33 1360.02,810.23 1361.50,810.50 C1362.79,810.74 1368.24,811.18 1372.18,812.10 C1396.99,818.13 1405.56,820.74 1407.95,821.90 C1408.08,821.96 1421.03,825.30 1421.50,825.50 C1422.07,825.74 1426.44,827.84 1431.02,828.83 C1433.74,829.43 1437.86,831.66 1439.11,831.93 C1441.48,832.44 1458.90,838.98 1463.26,841.40 C1465.37,842.57 1472.18,844.87 1473.50,845.50 C1474.96,846.20 1480.97,849.94 1482.42,849.92 C1482.67,849.91 1490.38,848.44 1492.50,848.50 C1494.89,848.60 1500.55,850.44 1503.16,851.66 C1505.96,853.00 1509.86,855.31 1514.04,858.04 C1516.61,859.66 1525.92,864.28 1534.92,869.74 C1547.50,877.67 1572.74,895.83 1584.43,905.31 C1592.96,912.47 1625.74,942.32 1626.50,943.50 C1626.73,943.85 1627.16,946.72 1627.50,947.50 C1627.80,948.18 1628.37,948.77 1628.50,949.50 C1628.62,950.16 1628.21,950.90 1628.50,951.50 C1628.92,952.35 1630.79,953.81 1631.31,955.02 C1632.21,957.08 1645.21,978.26 1645.50,978.50 C1646.08,978.97 1647.77,979.68 1648.89,981.16 C1648.99,981.29 1662.99,999.14 1668.08,1006.08 C1675.05,1015.92 1694.52,1047.59 1699.09,1056.61 C1702.70,1063.77 1710.27,1078.86 1714.23,1086.78 C1719.04,1096.56 1723.16,1105.81 1724.01,1109.69 C1724.40,1111.44 1729.58,1123.28 1730.18,1126.02 C1731.19,1130.69 1732.50,1133.50 1733.50,1135.50 C1733.82,1136.33 1735.34,1143.33 1736.46,1145.36 C1737.92,1148.03 1747.49,1184.94 1749.96,1198.25 C1750.45,1200.94 1753.55,1219.47 1753.48,1221.41 C1753.40,1223.46 1756.63,1245.34 1756.55,1248.00 C1756.39,1252.71 1757.00,1255.50 1757.50,1257.50 C1757.59,1258.16 1757.38,1266.44 1757.50,1269.50 C1757.62,1272.48 1758.56,1282.79 1758.50,1283.50 C1758.45,1284.08 1757.40,1288.29 1757.49,1294.47 C1757.59,1300.70 1756.56,1305.08 1756.50,1305.50 C1756.39,1306.27 1756.63,1313.66 1756.00,1315.67 C1755.42,1317.54 1755.60,1323.75 1755.00,1325.67 C1754.41,1327.57 1752.68,1344.47 1752.50,1345.50 C1752.29,1346.71 1751.52,1349.37 1751.50,1349.50 C1751.44,1350.02 1751.55,1353.08 1751.50,1353.50 C1744.71,1389.36 1736.83,1414.67 1736.50,1415.50 C1735.50,1417.50 1734.18,1420.34 1733.17,1425.06 C1732.64,1427.43 1730.37,1431.57 1729.85,1433.91 C1728.84,1438.58 1726.73,1442.94 1726.50,1443.50 C1726.33,1443.90 1725.43,1447.72 1723.16,1453.01 C1719.54,1461.26 1712.76,1476.60 1709.60,1483.70 C1707.40,1488.48 1686.90,1525.11 1680.50,1535.50 C1673.26,1546.58 1652.44,1573.93 1642.44,1586.32 C1638.15,1591.46 1630.22,1600.80 1625.50,1605.50 C1620.09,1610.71 1612.71,1617.85 1609.98,1620.76 C1608.63,1622.18 1608.31,1623.02 1608.76,1624.21 C1609.44,1626.01 1609.59,1627.30 1609.17,1629.15 C1608.23,1632.98 1603.87,1638.55 1600.38,1641.46 C1588.76,1650.90 1561.05,1672.72 1551.50,1679.50 C1543.63,1684.84 1516.69,1700.98 1503.20,1707.65 C1499.76,1709.38 1492.87,1712.86 1489.42,1714.61 C1486.45,1716.10 1481.71,1718.50 1479.50,1718.50 C1479.17,1718.56 1467.79,1723.45 1467.50,1723.50 C1466.85,1723.62 1464.96,1723.59 1462.65,1724.58 C1457.08,1726.54 1445.07,1731.21 1441.84,1732.02 C1438.67,1732.76 1429.91,1734.78 1429.46,1734.89 C1427.77,1735.32 1423.79,1737.49 1420.80,1738.19 C1412.73,1739.98 1393.74,1744.48 1393.50,1744.50 C1387.31,1745.05 1382.31,1745.41 1381.50,1745.50 C1380.28,1745.62 1375.93,1746.57 1375.50,1746.50 C1374.77,1746.38 1373.15,1745.39 1371.06,1745.40 C1363.62,1745.37 1350.16,1745.67 1347.01,1744.95 C1331.20,1741.26 1306.55,1735.72 1288.59,1732.68 C1276.39,1730.70 1272.00,1729.55 1271.50,1729.50 C1271.14,1729.47 1258.49,1728.36 1257.50,1728.50 C1252.85,1729.16 1236.48,1732.66 1233.50,1733.50 C1231.82,1733.98 1226.76,1736.20 1222.72,1737.30 C1210.99,1740.36 1203.64,1741.57 1201.80,1741.50 C1199.52,1741.42 1187.08,1742.60 1175.83,1742.44 C1173.91,1742.39 1172.97,1742.65 1171.50,1743.50" fill="none" stroke="rgb(255, 255, 255)" stroke-width="24.80" stroke-opacity="1.00" stroke-linejoin="round"/>
<path d="M1069.50,854.50 C1070.97,855.34 1072.01,855.65 1073.82,855.65 C1078.39,855.65 1084.08,854.63 1085.50,854.50 C1086.49,854.41 1095.55,854.60 1097.50,854.50 C1100.08,854.36 1115.63,852.40 1117.77,852.50 C1119.27,852.57 1123.07,851.45 1126.09,851.45 C1133.91,851.49 1150.65,851.30 1151.50,851.50 C1153.70,852.07 1159.60,855.23 1162.09,857.90 C1165.43,861.72 1169.74,865.40 1172.89,867.28 C1175.99,869.10 1182.78,871.79 1187.30,873.00 C1193.18,874.47 1195.67,874.50 1197.24,874.97 C1199.37,875.61 1211.30,876.42 1213.28,877.00 C1213.70,877.12 1234.57,878.44 1235.50,878.50 C1237.69,878.63 1242.40,878.30 1243.50,878.50 C1244.07,878.60 1248.45,879.61 1253.09,879.45 C1255.45,879.38 1259.61,880.62 1261.84,880.55 C1266.44,880.39 1270.50,881.00 1273.50,881.50 C1274.56,881.61 1281.40,881.38 1283.47,882.00 C1285.55,882.62 1292.68,882.39 1293.50,882.50 C1295.50,883.00 1298.31,883.61 1302.99,883.45 C1305.74,883.37 1310.02,884.62 1311.44,884.60 C1317.04,884.33 1321.17,885.53 1330.79,885.65 C1339.24,885.64 1353.33,885.53 1359.50,884.50 C1360.22,884.44 1364.87,884.57 1365.50,884.50 C1367.50,884.00 1372.50,883.50 1375.50,883.50 C1376.29,883.43 1379.12,882.55 1379.50,882.50 C1381.50,882.50 1385.50,882.00 1387.50,881.50 C1388.11,881.42 1391.07,881.55 1391.50,881.50 C1395.58,880.78 1402.63,879.70 1412.64,877.84 C1421.38,876.10 1434.59,872.47 1441.50,870.50 C1447.50,868.50 1455.02,865.94 1466.90,859.91 C1470.01,858.31 1473.54,855.47 1475.42,854.67 C1477.62,853.73 1479.61,850.91 1480.50,849.50" fill="none" stroke="rgb(255, 255, 255)" stroke-width="24.80" stroke-opacity="1.00" stroke-linejoin="round"/>
<path d="M1066.50,857.50 C1066.71,859.25 1066.27,863.95 1065.40,868.01 C1063.70,875.69 1047.21,911.42 1043.53,920.02 C1038.32,932.27 1038.00,933.24 1036.05,944.67 C1035.46,948.08 1034.16,952.32 1032.50,955.50 C1031.74,956.93 1027.81,963.76 1026.50,967.50 C1025.00,971.89 1019.21,1004.86 1019.50,1009.50 C1019.69,1012.44 1018.60,1016.67 1018.50,1017.50 C1018.42,1018.22 1018.47,1038.65 1018.51,1046.61 C1018.50,1052.14 1018.48,1063.42 1019.96,1072.54 C1020.30,1074.78 1021.32,1078.61 1021.32,1078.75 C1021.36,1080.67 1016.28,1086.76 1014.00,1089.10 C1011.23,1091.91 1003.98,1097.06 1003.50,1097.50 C1002.22,1098.69 997.37,1101.96 996.50,1104.50 C996.26,1105.25 996.51,1108.41 996.50,1108.50 C996.49,1108.74 995.44,1112.96 995.35,1119.08 C995.35,1123.63 995.43,1134.26 995.50,1134.50 C995.71,1135.22 996.33,1135.78 996.50,1136.50 C996.68,1137.14 996.61,1139.31 997.51,1140.19 C999.58,1142.15 1006.56,1145.60 1010.53,1147.46 C1015.81,1150.04 1018.74,1152.00 1020.50,1154.50 C1020.90,1155.10 1024.41,1159.94 1026.23,1163.68 C1027.62,1166.58 1029.79,1172.89 1030.50,1174.50 C1031.22,1176.13 1034.61,1182.50 1035.56,1185.19 C1036.85,1189.07 1041.63,1198.37 1044.70,1208.25 C1045.24,1210.01 1046.50,1212.45 1046.50,1212.50 C1046.61,1213.82 1043.43,1220.79 1040.50,1224.50 C1039.47,1225.79 1031.93,1234.24 1030.87,1235.13 C1027.62,1237.83 1017.48,1242.62 1007.50,1246.50 C1000.94,1249.08 996.10,1253.19 992.50,1256.50" fill="none" stroke="rgb(255, 255, 255)" stroke-width="24.80" stroke-opacity="1.00" stroke-linejoin="round"/>
<path d="M1645.50,978.50 C1646.04,981.33 1651.43,994.35 1651.50,994.50 C1651.85,995.43 1655.54,1008.35 1657.87,1019.45 C1659.38,1026.88 1659.55,1032.06 1659.61,1044.54 C1659.61,1049.01 1659.55,1059.87 1659.55,1060.11 C1659.58,1061.56 1657.79,1069.15 1657.50,1070.50 C1657.10,1072.36 1654.57,1078.57 1653.05,1081.19 C1650.02,1086.31 1640.52,1096.77 1634.50,1101.50 C1631.56,1103.78 1627.02,1106.40 1624.02,1107.45 C1620.71,1108.57 1614.98,1109.57 1611.30,1109.68 C1608.70,1109.74 1594.76,1109.59 1594.50,1109.50 C1593.80,1109.26 1588.02,1107.51 1586.57,1106.41 C1584.88,1105.09 1580.70,1099.73 1579.50,1096.50 C1578.63,1094.11 1577.12,1085.96 1576.50,1082.50 C1575.64,1078.04 1574.64,1074.56 1573.28,1071.76 C1572.00,1069.19 1569.31,1064.41 1567.50,1062.50 C1564.73,1059.63 1559.65,1055.29 1556.00,1053.67 C1554.72,1053.12 1550.41,1051.65 1549.50,1051.50 C1548.01,1051.30 1546.78,1051.96 1545.50,1053.50 C1545.12,1053.98 1539.27,1061.50 1538.17,1064.40 C1537.34,1066.95 1534.96,1073.68 1534.50,1075.50 C1532.89,1081.98 1532.19,1091.98 1531.50,1097.50 C1531.34,1098.83 1531.68,1104.35 1531.50,1105.50 C1531.47,1105.69 1529.60,1118.15 1526.55,1126.69 C1525.35,1129.96 1522.79,1136.02 1521.50,1137.50 C1520.29,1138.85 1516.38,1142.20 1515.50,1142.50 C1514.87,1142.70 1514.15,1142.35 1513.50,1142.50 C1512.77,1142.65 1511.16,1143.60 1509.13,1143.56 C1501.55,1143.52 1482.99,1143.47 1479.75,1144.02 C1477.61,1144.40 1466.54,1147.68 1458.97,1150.96 C1452.30,1153.87 1436.80,1162.75 1431.50,1166.50 C1426.67,1169.95 1414.52,1181.27 1409.66,1186.50 C1404.53,1192.06 1394.04,1207.25 1391.54,1211.94 C1389.03,1216.70 1386.74,1226.00 1386.50,1226.50 C1386.18,1227.18 1385.42,1228.91 1385.87,1230.33 C1386.33,1231.70 1390.55,1244.93 1391.36,1246.56 C1391.96,1247.75 1395.52,1252.27 1396.75,1254.93 C1399.12,1260.06 1404.67,1267.18 1411.58,1277.68 C1416.25,1284.89 1426.41,1300.45 1427.50,1302.50 C1428.29,1303.98 1438.40,1324.12 1442.29,1331.96 C1443.66,1334.72 1444.37,1338.15 1445.29,1339.85 C1446.44,1341.97 1448.17,1348.50 1448.98,1351.92 C1449.67,1354.90 1449.51,1358.75 1449.93,1360.20 C1451.80,1366.63 1449.62,1394.10 1448.50,1398.50 C1447.88,1400.88 1445.34,1406.56 1444.85,1408.60 C1444.14,1411.48 1442.08,1415.27 1439.37,1419.47 C1434.18,1427.24 1425.90,1437.94 1420.79,1442.08 C1414.80,1446.86 1408.41,1451.43 1400.11,1456.24 C1390.25,1461.85 1384.52,1463.48 1376.60,1467.31 C1368.94,1471.18 1355.01,1478.28 1350.50,1481.50 C1347.72,1483.58 1340.96,1488.66 1340.23,1489.37 C1337.95,1491.65 1331.58,1506.21 1330.89,1510.78 C1330.41,1514.01 1328.39,1525.29 1328.39,1527.98 C1328.40,1531.31 1328.65,1536.85 1328.50,1537.50 C1328.48,1537.60 1327.49,1540.83 1327.50,1541.50 C1327.51,1542.16 1328.46,1545.23 1328.50,1545.50 C1328.55,1545.80 1328.57,1550.26 1329.80,1556.22 C1331.06,1561.85 1332.45,1567.04 1333.38,1569.18 C1334.40,1571.48 1337.51,1576.56 1339.50,1579.50 C1341.57,1582.54 1345.44,1587.68 1348.55,1590.21 C1351.59,1592.57 1357.67,1597.75 1359.63,1598.88 C1363.83,1601.30 1407.03,1631.05 1412.38,1633.64 C1412.77,1633.82 1415.42,1635.01 1416.50,1635.50" fill="none" stroke="rgb(255, 255, 255)" stroke-width="24.80" stroke-opacity="1.00" stroke-linejoin="round"/>
<path d="M1010.50,1309.50 C1009.53,1312.99 1009.30,1316.20 1008.50,1317.50 C1001.21,1328.83 988.45,1353.05 987.42,1354.71 C985.43,1357.86 979.88,1363.56 976.88,1365.14 C973.85,1366.69 968.29,1367.23 964.17,1366.90 C962.18,1366.73 952.92,1366.25 950.76,1366.21 C946.56,1366.13 940.72,1365.56 937.61,1364.24 C935.34,1363.24 928.66,1358.43 925.89,1355.92 C923.32,1353.55 920.21,1348.79 918.50,1345.50 C916.52,1341.62 914.66,1336.53 913.78,1332.46 C911.71,1322.59 910.42,1308.10 910.39,1305.87 C910.38,1297.46 910.48,1278.87 911.02,1275.90 C911.53,1273.18 912.22,1267.63 913.79,1264.96 C915.84,1261.62 920.45,1257.99 924.50,1256.12 C931.56,1252.91 940.85,1249.60 947.69,1248.03 C951.25,1247.24 960.59,1247.58 969.14,1247.49 C972.97,1247.46 977.85,1247.60 979.96,1247.87 C981.43,1248.09 984.21,1249.20 985.82,1250.24 C987.40,1251.29 989.11,1253.17 990.31,1254.95 C991.23,1256.38 992.31,1256.23 992.50,1256.50 C992.59,1256.63 992.38,1264.74 992.99,1268.19 C993.08,1268.70 993.25,1269.47 993.50,1270.50" fill="none" stroke="rgb(255, 255, 255)" stroke-width="24.80" stroke-opacity="1.00" stroke-linejoin="round"/>
<path d="M920.50,1590.50 C923.29,1586.56 925.55,1582.84 926.62,1579.80 C926.95,1578.84 930.03,1570.93 932.41,1567.68 C934.51,1564.86 940.28,1558.54 942.50,1556.50 C945.38,1553.89 951.36,1549.96 952.50,1549.50 C953.36,1549.16 956.36,1548.55 956.50,1548.50 C957.08,1548.30 960.13,1546.65 960.50,1546.50 C960.84,1546.37 965.72,1545.09 969.83,1543.13 C973.47,1541.36 979.65,1537.55 983.12,1534.93 C989.23,1530.24 997.59,1519.82 998.50,1518.50 C1005.96,1507.61 1006.29,1497.13 1006.50,1496.50 C1006.73,1495.79 1007.48,1495.25 1007.50,1494.50 C1007.51,1493.76 1006.30,1492.04 1006.17,1490.39 C1005.83,1486.52 1005.07,1481.91 1004.22,1478.76 C1003.57,1476.41 1001.44,1472.49 1001.09,1470.56 C1000.70,1468.51 997.43,1464.52 996.57,1462.55 C995.98,1461.20 994.78,1459.46 993.53,1458.20 C992.28,1456.93 990.02,1456.03 989.50,1455.50 C989.04,1455.01 988.44,1447.61 988.21,1442.40 C988.04,1438.29 988.41,1431.47 989.63,1428.80 C989.94,1428.15 994.01,1421.19 994.50,1420.50 C994.80,1420.09 1002.07,1412.30 1003.88,1410.02 C1008.46,1404.19 1016.80,1388.53 1019.31,1382.24 C1022.28,1374.75 1024.58,1362.49 1024.51,1360.47 C1024.45,1358.96 1024.86,1354.90 1023.46,1351.99 C1021.28,1347.55 1014.39,1337.70 1012.36,1331.72 C1011.66,1329.61 1009.68,1318.88 1009.50,1318.50 C1009.36,1318.21 1009.03,1317.88 1008.50,1317.50" fill="none" stroke="rgb(255, 255, 255)" stroke-width="24.80" stroke-opacity="1.00" stroke-linejoin="round"/>
<path d="M1093.50,1382.50 C1094.47,1382.02 1100.19,1386.85 1101.50,1388.50 C1103.30,1390.81 1107.51,1398.18 1108.73,1401.53 C1109.44,1403.50 1111.50,1410.50 1112.30,1413.56 C1112.70,1415.22 1112.93,1417.49 1112.50,1418.50 C1111.81,1420.05 1108.88,1423.52 1107.50,1424.50 C1106.54,1425.15 1105.09,1425.04 1103.50,1424.50 C1096.97,1422.09 1085.81,1417.89 1079.50,1414.50 C1079.02,1414.26 1071.81,1410.27 1072.50,1409.50 C1072.88,1409.11 1078.34,1408.55 1078.50,1408.50 C1079.22,1408.30 1079.77,1407.64 1080.50,1407.50 C1081.15,1407.35 1081.87,1407.71 1082.50,1407.50 C1083.55,1407.13 1086.35,1403.67 1087.50,1401.50 C1088.26,1400.02 1090.13,1390.94 1090.50,1389.50 C1091.33,1386.43 1092.71,1382.94 1093.50,1382.50 Z" fill="none" stroke="rgb(255, 255, 255)" stroke-width="24.80" stroke-opacity="1.00" stroke-linejoin="round"/>
<path d="M1608.50,1622.50 C1607.75,1621.49 1601.10,1619.69 1597.28,1618.64 C1582.87,1614.79 1572.10,1612.56 1571.50,1612.50 C1571.02,1612.45 1559.81,1611.42 1557.14,1611.41 C1549.32,1611.45 1534.26,1611.31 1530.45,1611.88 C1525.23,1612.64 1521.58,1612.33 1518.22,1610.73 C1515.59,1609.45 1509.32,1607.11 1507.72,1606.19 C1502.81,1603.36 1481.84,1586.61 1481.50,1586.50 C1480.87,1586.30 1480.16,1586.63 1479.50,1586.50 C1478.99,1586.41 1476.93,1584.84 1475.50,1584.50 C1475.02,1584.39 1467.32,1584.26 1461.41,1584.35 C1456.09,1584.47 1452.75,1584.70 1451.50,1585.50 C1450.78,1585.98 1448.13,1588.00 1447.50,1588.50 C1446.04,1589.72 1445.28,1590.83 1444.54,1592.81 C1444.52,1592.84 1435.16,1616.22 1432.96,1620.12 C1431.40,1622.83 1426.94,1628.75 1424.50,1630.50 C1423.16,1631.45 1419.51,1633.10 1418.51,1633.63 C1416.97,1634.48 1415.84,1637.00 1415.92,1639.31 C1415.95,1639.93 1416.15,1640.99 1416.50,1642.50" fill="none" stroke="rgb(255, 255, 255)" stroke-width="24.80" stroke-opacity="1.00" stroke-linejoin="round"/>
</g>
</svg>
